<?xml version="1.0" standalone="no"?>
<!DOCTYPE svg PUBLIC "-//W3C//DTD SVG 20010904//EN"
 "http://www.w3.org/TR/2001/REC-SVG-20010904/DTD/svg10.dtd">
<svg version="1.0" xmlns="http://www.w3.org/2000/svg"
 width="1500.000000pt" height="1500.000000pt" viewBox="0 0 1500.000000 1500.000000"
 preserveAspectRatio="xMidYMid meet">

<g transform="translate(0.000000,1500.000000) scale(0.100000,-0.100000)"
fill="#000000" stroke="none">
<path d="M0 7500 l0 -7500 7500 0 7500 0 0 7500 0 7500 -7500 0 -7500 0 0
-7500z m7804 6248 c3 -13 6 -42 6 -65 0 -23 5 -45 10 -48 12 -8 13 -55 1 -55
-9 0 -14 -37 -27 -187 -4 -43 -12 -77 -20 -84 -10 -8 -14 -38 -14 -111 0 -92
2 -102 25 -130 24 -28 25 -36 25 -148 0 -128 1 -130 60 -130 16 0 30 -7 34
-15 3 -9 6 -67 7 -130 1 -123 -3 -115 61 -129 24 -5 27 -12 34 -62 3 -31 4
-87 0 -123 -5 -59 -3 -69 14 -84 11 -9 27 -17 34 -17 21 0 39 -64 31 -110 -4
-22 -15 -64 -26 -92 -25 -69 -24 -77 10 -89 40 -14 55 -51 39 -98 -7 -20 -17
-42 -23 -50 -5 -8 -10 -39 -11 -70 -1 -65 -20 -161 -34 -175 -6 -6 -10 -43
-10 -83 0 -58 -3 -74 -17 -82 -14 -7 -15 -13 -6 -21 20 -21 70 17 84 66 7 23
25 60 39 81 22 32 32 39 70 43 44 5 45 6 60 58 9 30 21 57 26 60 6 4 16 21 23
39 15 37 46 60 86 65 15 2 33 12 39 22 6 11 21 31 34 45 12 14 22 29 22 33 0
23 43 48 80 48 35 0 42 4 52 28 7 15 29 44 50 66 21 21 38 44 38 51 0 19 42
53 47 38 9 -25 42 -13 72 26 17 21 31 42 31 46 0 18 106 105 128 105 16 0 47
23 98 75 67 68 78 75 114 75 34 0 46 7 98 60 43 43 67 60 86 60 15 0 29 7 32
15 4 8 12 15 20 15 8 0 14 5 14 10 0 6 7 10 16 10 17 0 67 46 76 72 5 10 14
15 27 11 14 -3 24 3 37 24 10 15 20 30 22 33 1 2 7 -2 11 -9 7 -11 13 -9 30 8
11 11 21 28 21 36 0 8 5 15 10 15 6 0 10 -4 10 -10 0 -18 18 -11 25 9 5 16 12
19 40 14 23 -4 35 -2 35 6 0 6 5 11 10 11 14 0 12 -84 -2 -98 -7 -7 -18 -12
-26 -12 -16 0 -93 -83 -104 -112 -4 -10 -12 -18 -18 -18 -5 0 -10 -5 -10 -11
0 -7 -16 -25 -35 -42 -19 -16 -35 -37 -35 -46 0 -9 -9 -24 -20 -34 -11 -9 -20
-27 -20 -41 0 -13 -13 -39 -30 -57 -16 -19 -30 -41 -30 -49 0 -8 -9 -21 -20
-28 -21 -13 -27 -47 -10 -57 23 -14 9 -62 -30 -104 -22 -23 -40 -48 -40 -54 0
-6 -10 -21 -22 -34 -17 -18 -19 -26 -10 -35 22 -22 14 -76 -13 -94 -14 -9 -25
-25 -25 -35 0 -11 -4 -19 -10 -19 -6 0 -10 -27 -10 -60 0 -55 -3 -62 -42 -109
-24 -27 -53 -55 -65 -62 -27 -15 -39 -47 -24 -62 21 -21 11 -52 -29 -90 -22
-20 -40 -40 -40 -42 0 -3 -22 -27 -50 -53 -27 -26 -50 -54 -50 -60 0 -17 -125
-142 -142 -142 -8 0 -22 -10 -32 -21 -15 -18 -16 -25 -6 -44 18 -34 9 -59 -27
-70 -38 -13 -103 -65 -103 -82 0 -7 -18 -31 -40 -53 -22 -22 -39 -40 -37 -40
1 0 33 -2 71 -4 65 -3 71 -2 100 25 41 38 100 40 134 4 l24 -25 74 40 c80 43
136 49 159 16 12 -16 15 -16 54 3 49 26 74 26 97 4 22 -22 83 -22 115 1 31 21
33 21 64 -10 20 -20 29 -24 38 -15 14 14 140 14 154 0 7 -7 75 -10 195 -9 102
0 192 -2 201 -6 10 -3 17 -17 17 -30 0 -13 3 -24 7 -24 5 0 40 34 80 75 39 41
76 75 82 75 6 0 81 70 166 155 85 85 159 155 165 155 6 0 59 47 116 105 58 58
128 122 157 143 73 54 514 501 544 551 13 23 28 41 32 41 4 0 12 10 18 23 6
12 27 41 47 65 19 24 49 74 66 110 17 37 38 82 48 100 11 23 16 60 17 115 0
76 2 82 21 85 15 2 29 -7 45 -30 23 -31 24 -42 24 -177 0 -107 -3 -145 -12
-148 -7 -3 -13 -20 -13 -39 0 -18 -9 -50 -19 -71 -25 -49 -37 -113 -22 -113 7
0 29 11 49 25 20 14 42 25 48 25 7 0 14 3 16 8 2 4 30 20 63 36 33 15 68 33
78 38 51 26 99 50 169 83 43 20 80 40 83 46 4 5 19 9 36 9 16 0 29 5 29 10 0
6 8 10 19 10 10 0 32 7 47 15 16 8 37 15 47 15 9 0 17 5 17 10 0 6 13 10 30
10 16 0 33 6 37 14 4 7 26 16 48 20 22 3 59 9 83 12 23 4 42 11 42 15 0 5 20
9 45 9 31 0 47 5 51 15 5 13 35 15 185 15 152 0 179 -2 179 -15 0 -11 11 -15
36 -15 38 0 64 -18 64 -45 0 -37 -24 -45 -143 -45 -90 0 -117 -3 -127 -15 -7
-8 -25 -15 -41 -15 -16 0 -29 -4 -29 -10 0 -5 -15 -10 -34 -10 -19 0 -36 -4
-38 -8 -2 -5 -38 -25 -80 -46 -42 -20 -82 -44 -88 -52 -7 -8 -18 -14 -24 -14
-15 0 -66 -48 -66 -62 0 -6 -13 -33 -30 -60 l-30 -48 0 -200 c0 -122 -4 -201
-10 -205 -6 -4 -10 -65 -10 -150 0 -85 -4 -146 -10 -150 -6 -4 -10 -111 -10
-288 0 -231 -3 -287 -15 -311 -22 -42 -22 -394 0 -402 12 -5 15 -26 15 -105 0
-73 3 -99 13 -99 19 0 10 -180 -11 -202 -19 -22 -70 -23 -100 -2 -21 14 -23
23 -21 79 2 48 -2 67 -14 80 -21 20 -22 64 -2 101 13 25 15 111 15 581 0 357
4 554 10 558 6 3 10 36 10 73 1 43 6 74 16 87 12 16 14 58 14 225 -1 113 2
221 6 240 l7 35 -21 -19 c-20 -17 -22 -29 -22 -111 0 -78 -3 -95 -19 -109 -46
-42 -84 15 -106 157 -6 40 -15 46 -35 22 -7 -8 -16 -15 -21 -15 -4 0 -25 -16
-46 -35 -21 -19 -46 -38 -55 -41 -10 -3 -18 -10 -18 -15 0 -5 -6 -9 -13 -9 -8
0 -24 -12 -38 -26 -13 -14 -44 -40 -68 -56 -24 -17 -58 -47 -77 -67 -18 -20
-45 -43 -61 -51 -15 -8 -72 -57 -126 -110 -53 -52 -103 -97 -110 -99 -16 -5
-67 -59 -67 -72 0 -5 -6 -9 -13 -9 -7 0 -66 -54 -132 -120 -66 -66 -126 -120
-132 -120 -7 0 -13 -4 -13 -10 0 -5 -6 -10 -13 -10 -7 0 -73 -60 -148 -133
-74 -74 -147 -142 -163 -152 -15 -10 -32 -29 -37 -42 -5 -13 -17 -23 -27 -23
-11 0 -76 -56 -151 -130 -73 -71 -140 -130 -149 -130 -10 0 -79 -61 -154 -135
-75 -74 -142 -135 -150 -135 -8 0 -44 -30 -80 -67 -123 -126 -185 -183 -198
-183 -7 0 -39 -27 -71 -60 -32 -33 -63 -60 -68 -60 -6 0 -11 -6 -11 -13 0 -15
-45 -57 -60 -57 -6 0 -10 -4 -10 -8 0 -14 -97 -110 -119 -117 -11 -3 -21 -11
-21 -16 0 -5 -7 -9 -15 -9 -8 0 -15 -4 -15 -9 0 -14 -222 -231 -237 -231 -7 0
-73 -61 -147 -135 -73 -74 -138 -135 -144 -135 -14 0 -242 -225 -266 -262 -10
-16 -27 -28 -37 -28 -11 0 -21 -9 -25 -24 -3 -15 -16 -27 -30 -30 -21 -6 -115
-95 -296 -285 -25 -26 -61 -58 -80 -69 -38 -24 -78 -57 -78 -65 0 -6 -180
-187 -186 -187 -2 0 -18 -12 -34 -26 l-29 -27 32 -40 c17 -22 56 -59 87 -81
30 -23 121 -107 203 -188 81 -82 153 -148 159 -148 6 0 74 -63 151 -140 77
-77 145 -140 152 -140 6 0 58 -47 114 -105 56 -58 110 -105 119 -105 21 0 112
-102 112 -125 0 -12 6 -15 20 -10 11 3 20 2 20 -2 0 -5 34 -45 75 -88 41 -44
75 -83 75 -87 0 -4 7 -8 15 -8 8 0 15 -5 15 -11 0 -6 8 -8 19 -4 16 5 20 0 23
-22 2 -22 8 -28 25 -26 16 2 27 -6 37 -25 16 -31 248 -262 262 -262 6 0 82
-71 170 -159 87 -87 173 -165 189 -174 17 -9 86 -72 153 -141 68 -70 129 -126
136 -126 8 0 83 -67 167 -150 85 -82 170 -166 190 -185 20 -19 41 -35 46 -35
5 0 68 -58 138 -130 91 -91 136 -130 152 -130 13 0 23 -4 23 -9 0 -10 79 -90
179 -182 33 -31 61 -62 61 -68 0 -6 12 -11 28 -11 21 0 54 -28 161 -135 74
-74 141 -135 148 -135 7 0 52 -38 99 -85 48 -47 93 -85 99 -85 7 0 39 -27 73
-60 33 -33 65 -60 71 -60 6 0 33 -23 60 -50 27 -27 56 -50 65 -50 8 0 30 -16
49 -35 19 -19 39 -35 45 -35 6 0 27 -15 45 -34 19 -18 44 -37 56 -41 11 -3 21
-11 21 -16 0 -5 6 -9 14 -9 8 0 16 -7 20 -15 3 -8 14 -15 23 -15 10 0 25 -9
33 -20 8 -11 22 -20 32 -20 9 0 30 -13 46 -28 16 -16 44 -34 63 -42 19 -8 44
-24 56 -37 12 -13 31 -23 43 -23 11 0 20 -3 20 -7 0 -9 48 -33 66 -33 6 0 17
-7 24 -15 7 -8 21 -15 31 -15 11 0 19 -4 19 -8 0 -7 23 -19 100 -48 19 -8 59
-17 88 -20 29 -4 55 -11 58 -15 3 -5 16 -9 29 -9 13 0 25 -5 27 -11 3 -9 9 -9
25 0 12 6 30 11 41 11 11 0 23 7 26 16 10 25 26 6 26 -31 0 -30 -5 -37 -39
-55 -35 -17 -60 -20 -242 -20 -136 -1 -205 2 -207 9 -2 6 -18 11 -35 11 -31 0
-87 15 -120 31 -9 5 -38 12 -62 16 -25 3 -48 10 -51 14 -3 5 -15 9 -27 9 -12
0 -40 12 -62 25 -40 25 -116 34 -141 17 -21 -14 -34 -51 -34 -100 0 -32 -5
-54 -15 -62 -13 -11 -15 -64 -14 -368 0 -246 -3 -358 -10 -360 -6 -2 -11 -10
-11 -17 0 -18 -38 -29 -54 -16 -7 6 -16 8 -19 4 -4 -3 -7 -122 -7 -264 0 -208
-3 -262 -15 -285 -12 -24 -15 -77 -15 -280 0 -192 -3 -260 -14 -285 -9 -21
-12 -53 -9 -89 7 -68 -10 -127 -38 -135 -36 -12 -66 2 -72 34 -4 17 -6 185 -7
375 0 281 3 353 15 388 11 31 15 87 15 200 0 94 4 159 10 163 6 4 10 81 10
198 1 153 4 196 15 211 22 29 22 563 0 592 -10 14 -14 47 -15 117 0 125 -19
169 -86 197 -24 11 -61 31 -81 45 -52 34 -62 19 -31 -47 14 -29 33 -80 43
-113 10 -33 21 -64 26 -69 5 -6 9 -71 9 -145 0 -127 -1 -136 -25 -166 -44 -59
-101 -48 -75 15 13 32 6 115 -11 125 -5 4 -9 21 -9 39 0 19 -7 39 -15 46 -8 7
-15 20 -15 29 0 10 -11 28 -24 40 -14 13 -32 39 -41 57 -9 19 -20 34 -24 34
-4 0 -18 20 -31 45 -13 25 -27 45 -31 45 -4 0 -18 17 -30 38 -13 20 -31 44
-41 53 -10 9 -18 21 -18 28 0 6 -4 11 -10 11 -5 0 -84 74 -175 165 -90 91
-169 165 -175 165 -6 0 -33 23 -60 50 -27 27 -54 50 -60 50 -5 0 -10 7 -10 15
0 8 -6 15 -12 15 -7 0 -24 16 -38 35 -14 19 -31 35 -37 35 -7 0 -13 5 -13 10
0 13 -108 120 -120 120 -6 0 -10 5 -10 10 0 6 -7 10 -16 10 -17 0 -94 73 -94
90 0 5 -4 10 -8 10 -12 0 -162 148 -162 160 0 5 -9 10 -21 10 -13 0 -75 55
-174 155 -98 98 -162 155 -175 155 -11 0 -20 7 -20 15 0 8 -7 15 -15 15 -8 0
-15 7 -15 15 0 8 -6 15 -14 15 -8 0 -18 9 -21 20 -3 11 -13 20 -21 20 -8 0
-14 7 -14 15 0 8 -6 15 -13 15 -7 0 -21 11 -31 25 -30 39 -64 75 -73 75 -4 0
-21 16 -38 35 -16 19 -36 35 -43 35 -8 0 -71 58 -142 130 -71 71 -134 130
-140 130 -7 0 -80 68 -163 150 -83 83 -157 150 -164 150 -7 0 -78 65 -157 145
-80 80 -151 145 -158 145 -7 0 -28 16 -45 35 -18 19 -37 35 -43 35 -5 0 -10 7
-10 15 0 8 -4 15 -10 15 -12 0 -60 48 -60 60 0 6 -7 10 -15 10 -8 0 -15 7 -15
15 0 8 -4 15 -10 15 -12 0 -60 48 -60 60 0 6 -8 10 -18 10 -10 0 -25 8 -33 18
-25 26 -58 52 -69 52 -6 0 -10 5 -10 11 0 13 -176 189 -189 189 -6 0 -49 38
-97 85 -49 47 -93 85 -98 85 -12 0 -11 -292 0 -385 5 -42 3 -54 -14 -73 -26
-29 -52 -25 -71 10 -13 22 -13 33 -3 61 8 21 12 96 12 210 0 200 -8 233 -66
261 -19 8 -34 20 -34 26 0 5 -9 10 -20 10 -17 0 -20 -7 -20 -50 0 -38 -4 -52
-19 -59 -26 -15 -46 11 -46 61 0 27 6 43 17 49 16 9 15 13 -7 46 -14 20 -25
42 -25 50 0 21 -39 73 -55 73 -7 0 -15 7 -19 15 -7 20 -32 19 -40 -1 -3 -9 -6
-93 -6 -188 0 -171 0 -173 -25 -196 -21 -20 -25 -32 -25 -85 0 -53 -4 -66 -28
-93 -16 -18 -36 -32 -44 -32 -36 0 -40 24 -33 192 8 165 11 183 42 214 26 26
32 213 8 237 -25 26 -39 21 -96 -33 -29 -27 -58 -50 -65 -50 -7 0 -75 -63
-152 -140 -77 -77 -145 -140 -151 -140 -7 0 -73 -60 -146 -133 -115 -114 -178
-173 -232 -217 -7 -6 -15 -10 -18 -10 -4 0 -55 -48 -113 -106 -110 -109 -173
-164 -189 -164 -4 0 -78 -70 -163 -155 -85 -85 -161 -155 -168 -155 -7 0 -74
-61 -148 -135 -74 -74 -140 -135 -147 -135 -7 0 -79 -65 -160 -145 -81 -80
-152 -145 -158 -145 -11 0 -77 -59 -137 -123 -125 -131 -196 -197 -213 -197
-5 0 -58 -49 -117 -109 -60 -60 -117 -110 -127 -112 -11 -3 -21 -14 -23 -25
-2 -12 -15 -27 -30 -35 -15 -7 -94 -80 -175 -161 -82 -82 -154 -148 -161 -148
-11 0 -166 -145 -166 -155 0 -7 -80 -79 -94 -85 -32 -14 -56 -37 -56 -52 0
-10 -7 -18 -15 -18 -19 0 -475 -457 -475 -476 0 -8 -4 -14 -10 -14 -5 0 -10
-5 -10 -11 0 -6 -16 -26 -35 -45 -19 -18 -35 -41 -35 -49 0 -9 -7 -18 -15 -21
-8 -4 -15 -11 -15 -17 0 -5 -11 -25 -25 -43 -14 -18 -25 -37 -25 -43 0 -6 -4
-11 -9 -11 -5 0 -16 -30 -26 -68 -9 -37 -21 -75 -26 -84 -12 -24 -12 -85 1
-93 15 -9 12 -51 -5 -65 -16 -13 -25 -9 -66 31 -26 25 -46 142 -31 183 7 18
12 62 12 99 0 54 6 78 29 125 46 91 64 162 40 162 -15 0 -39 -26 -39 -44 0 -8
-4 -17 -9 -21 -18 -10 -41 -68 -41 -101 0 -18 -5 -36 -10 -39 -14 -8 -14 -642
0 -650 5 -3 10 -17 10 -30 0 -13 4 -27 10 -30 14 -9 12 -109 -2 -123 -16 -16
-73 -15 -87 1 -6 8 -14 28 -17 45 -18 90 -24 -4 -24 -376 0 -306 3 -411 12
-420 9 -9 15 -125 22 -418 l9 -405 -26 -25 c-14 -13 -34 -24 -43 -24 -20 0
-43 28 -44 52 0 9 -6 18 -12 20 -19 7 -19 1334 0 1370 11 21 13 141 3 233 -1
6 1 33 5 61 4 34 2 59 -7 75 -7 13 -16 42 -20 64 -4 22 -12 58 -18 80 -14 53
-13 260 1 310 6 22 13 77 15 123 4 68 2 82 -11 82 -18 0 -86 -39 -86 -49 0
-10 -90 -39 -144 -47 -23 -4 -48 -12 -56 -19 -22 -18 -162 -84 -185 -87 -20
-3 -20 -12 -23 -428 -1 -276 1 -427 8 -434 5 -5 10 -44 10 -86 0 -67 -3 -78
-25 -103 -14 -15 -32 -27 -40 -27 -21 0 -75 59 -75 81 0 11 -4 19 -9 19 -19 0
-23 41 -7 65 9 13 16 44 16 69 0 25 5 48 10 51 6 4 10 148 10 401 l0 394 -39
0 c-22 0 -43 -4 -46 -10 -4 -6 -82 -10 -202 -10 -181 0 -201 2 -245 22 -37 17
-48 27 -48 44 0 23 2 23 98 21 62 -1 104 2 113 9 8 7 34 15 59 18 41 7 69 15
110 36 9 4 30 11 48 15 18 3 32 11 32 16 0 5 8 9 19 9 10 0 24 7 31 15 7 8 19
15 26 15 18 0 94 50 94 61 0 5 10 9 21 9 12 0 43 16 69 35 26 19 54 35 63 35
8 0 17 7 21 15 3 8 14 15 23 15 10 0 25 9 33 20 8 11 21 20 29 20 8 0 29 15
47 34 19 19 44 38 56 42 12 3 39 24 61 45 21 22 44 39 52 39 8 0 20 9 28 20 8
12 32 30 53 41 22 10 62 41 89 68 28 27 64 56 80 65 17 8 53 38 80 66 28 27
55 50 60 50 6 0 48 38 95 85 47 47 91 85 100 85 8 0 80 65 160 145 80 80 151
145 158 145 7 0 77 64 155 141 78 78 154 146 170 151 17 6 27 17 27 29 0 11
10 23 23 28 12 5 43 31 68 58 26 26 66 66 90 89 24 22 61 59 81 82 20 23 44
42 54 42 9 0 81 65 160 145 78 80 150 145 159 145 14 0 63 45 116 106 9 11 57
59 108 107 50 49 91 93 91 98 0 5 9 9 19 9 11 0 75 56 154 135 74 74 139 135
145 135 6 0 74 63 151 140 77 77 146 140 153 140 7 0 85 72 172 160 88 88 165
160 170 160 6 0 72 61 146 135 74 74 140 135 146 135 7 0 84 72 172 160 88 88
165 160 172 160 13 0 336 314 351 342 7 14 -13 39 -105 130 -63 62 -136 131
-162 153 -26 22 -108 100 -182 172 -74 73 -143 135 -153 138 -10 3 -83 71
-162 151 -79 79 -149 144 -155 144 -6 0 -56 45 -111 100 -55 55 -105 100 -111
100 -5 0 -10 5 -10 11 0 15 -108 119 -123 119 -11 0 -90 74 -172 160 -46 48
-116 110 -124 110 -13 0 -161 147 -161 160 0 5 -3 10 -7 10 -13 0 -63 47 -63
59 0 6 -5 11 -11 11 -7 0 -20 10 -31 23 -11 12 -25 22 -32 22 -7 0 -44 33 -84
73 -39 39 -76 72 -82 72 -5 0 -10 7 -10 15 0 8 -6 15 -14 15 -8 0 -18 9 -21
20 -3 11 -13 20 -21 20 -8 0 -14 7 -14 15 0 8 -7 15 -15 15 -8 0 -15 5 -15 11
0 16 -26 39 -44 39 -9 0 -80 65 -159 145 -80 80 -150 145 -157 145 -7 0 -78
65 -157 145 -87 87 -152 145 -164 145 -10 0 -19 7 -19 15 0 8 -6 15 -12 15 -7
0 -24 16 -38 35 -14 19 -28 35 -32 35 -4 0 -52 45 -107 100 -54 55 -105 100
-113 100 -7 0 -67 54 -133 120 -65 66 -125 120 -132 120 -6 0 -62 50 -123 110
-61 61 -130 121 -153 134 -92 52 -107 61 -107 69 0 4 -5 7 -11 7 -6 0 -16 6
-24 13 -7 6 -21 19 -31 28 -11 9 -62 60 -114 114 -52 54 -120 115 -150 137
-57 40 -128 94 -168 128 -13 11 -28 20 -33 20 -5 0 -9 5 -9 10 0 6 -4 10 -9
10 -9 0 -132 79 -141 91 -3 3 -30 19 -60 35 -30 16 -57 32 -60 36 -3 4 -42 25
-88 47 -45 23 -82 46 -82 51 0 6 -6 10 -14 10 -7 0 -19 7 -26 15 -7 8 -28 15
-46 15 -19 0 -34 5 -34 10 0 6 -17 10 -39 10 -21 0 -52 7 -67 15 -19 10 -58
15 -116 15 -103 0 -118 5 -118 36 0 17 7 25 25 30 14 3 25 10 25 14 0 4 11 11
25 14 14 4 25 11 25 16 0 6 62 10 159 10 129 0 162 -3 175 -15 9 -10 34 -15
70 -15 31 0 56 -4 56 -10 0 -5 11 -10 25 -10 33 0 137 -28 149 -40 5 -5 23
-10 38 -10 15 0 28 -4 28 -10 0 -5 7 -10 16 -10 16 0 44 -11 139 -55 85 -40
123 -55 134 -55 6 0 11 -4 11 -10 0 -5 7 -10 15 -10 8 0 24 -4 35 -10 11 -5
28 -14 38 -18 9 -5 31 -15 47 -24 17 -9 57 -29 90 -44 33 -16 66 -35 73 -41 7
-7 20 -13 28 -13 8 0 14 -3 14 -7 0 -8 47 -33 62 -33 12 0 10 38 -2 45 -5 3
-10 15 -10 25 0 11 -11 43 -24 72 -72 162 -75 297 -8 416 15 26 59 30 69 6 3
-9 0 -40 -7 -69 -11 -47 -11 -58 4 -88 9 -19 16 -42 16 -51 0 -9 5 -16 10 -16
6 0 10 -8 10 -19 0 -28 32 -82 85 -144 6 -7 17 -25 25 -42 8 -16 25 -41 38
-55 12 -14 22 -30 22 -36 0 -14 78 -94 91 -94 5 0 9 -7 9 -15 0 -8 4 -15 10
-15 9 0 60 -47 60 -55 0 -12 441 -445 453 -445 9 0 35 -21 59 -46 75 -81 195
-196 225 -214 15 -10 82 -73 148 -140 66 -67 130 -126 143 -131 12 -4 22 -15
22 -23 0 -9 13 -22 28 -30 16 -8 84 -71 152 -140 68 -69 133 -129 144 -132 11
-4 95 -82 188 -175 92 -93 174 -169 181 -169 7 0 62 -49 122 -110 60 -60 118
-110 127 -110 11 0 18 -8 18 -19 0 -12 9 -23 22 -27 13 -4 72 -56 132 -115 60
-60 114 -109 122 -109 7 0 16 -9 19 -21 4 -11 15 -23 26 -27 10 -4 79 -67 153
-140 73 -72 140 -132 147 -132 8 0 84 -69 170 -154 86 -85 166 -157 178 -161
12 -3 75 -60 141 -126 74 -74 126 -119 139 -119 11 0 26 -10 32 -22 14 -26 34
-48 44 -48 4 0 67 -61 141 -135 74 -74 139 -135 145 -135 13 0 31 -15 87 -72
25 -27 53 -48 62 -48 8 0 40 25 70 56 30 31 80 73 110 94 30 21 115 100 189
174 74 75 139 136 145 136 7 0 77 65 158 145 80 80 151 145 156 145 11 0 45
30 160 141 39 39 72 75 72 80 0 5 5 9 11 9 6 0 30 20 53 45 25 25 53 45 65 45
12 0 50 30 96 75 41 41 79 75 85 75 5 0 10 4 10 9 0 14 102 111 116 111 6 0
79 68 162 150 83 83 156 150 162 150 6 0 78 67 160 150 82 83 155 150 163 150
20 0 251 240 271 281 5 10 19 19 31 19 20 0 105 70 105 86 0 4 8 13 18 20 15
12 14 13 -15 14 -18 0 -33 -4 -33 -10 0 -6 -27 -10 -60 -10 -33 0 -60 -4 -60
-10 0 -5 -12 -10 -26 -10 -15 0 -38 -12 -56 -30 -23 -23 -39 -30 -69 -30 -21
0 -39 -4 -39 -10 0 -5 -22 -10 -50 -10 -27 0 -50 -4 -50 -10 0 -5 -11 -10 -25
-10 -14 0 -28 -7 -31 -15 -4 -9 -19 -15 -40 -15 -19 0 -34 -4 -34 -10 0 -5 -9
-10 -19 -10 -10 0 -21 -7 -25 -15 -3 -9 -19 -15 -41 -15 -28 0 -35 -4 -35 -20
0 -11 -4 -20 -10 -20 -5 0 -10 -7 -10 -15 0 -10 -10 -15 -30 -15 -20 0 -30 5
-30 15 0 10 -10 15 -30 15 -20 0 -30 -5 -30 -15 0 -9 -9 -15 -24 -15 -18 0
-25 -6 -28 -22 -2 -15 -11 -24 -25 -26 -13 -2 -23 -8 -23 -13 0 -5 -38 -9 -85
-9 -76 0 -85 -2 -85 -19 0 -28 -26 -44 -65 -39 -19 2 -35 0 -35 -4 0 -4 -20
-8 -43 -8 -35 0 -49 -6 -73 -30 -33 -33 -46 -37 -64 -15 -17 20 -40 18 -67 -4
-32 -27 -29 -31 22 -31 32 0 52 -6 67 -20 14 -13 36 -20 61 -20 21 0 53 -7 70
-16 56 -29 67 -34 77 -34 5 0 28 -18 50 -40 22 -22 44 -40 48 -40 14 0 71 -30
77 -41 4 -5 15 -9 26 -9 14 0 19 -7 19 -25 0 -22 -4 -25 -40 -25 -22 0 -40 5
-40 10 0 6 -27 10 -60 10 -33 0 -60 -4 -60 -10 0 -5 -18 -10 -40 -10 -22 0
-40 5 -40 10 0 6 -20 10 -45 10 -25 0 -45 -4 -45 -10 0 -15 -97 -12 -104 3 -5
10 -7 10 -12 0 -7 -16 -200 -18 -209 -3 -3 6 -26 10 -50 10 -24 0 -47 -4 -50
-10 -3 -5 -15 -10 -26 -10 -10 0 -19 5 -19 10 0 20 -79 11 -105 -12 -30 -26
-31 -34 -5 -41 14 -3 20 -14 20 -31 0 -26 -1 -26 -73 -26 -49 0 -80 5 -93 15
-10 8 -38 15 -61 15 -23 0 -45 5 -48 10 -3 6 -16 10 -28 10 -12 0 -44 11 -72
24 -27 13 -67 31 -87 40 -20 9 -40 21 -43 26 -3 6 -15 10 -26 10 -11 0 -22 7
-25 15 -4 8 -13 15 -21 15 -9 0 -31 14 -50 30 -39 35 -53 38 -53 12 0 -10 -11
-25 -25 -32 -14 -7 -25 -17 -25 -21 0 -17 -60 -69 -80 -69 -11 0 -20 -4 -20
-10 0 -5 -7 -10 -15 -10 -8 0 -15 -5 -15 -11 0 -16 -26 -39 -45 -39 -8 0 -18
-7 -21 -15 -4 -10 -21 -15 -54 -15 -34 0 -52 -5 -65 -20 -10 -11 -24 -20 -32
-20 -7 0 -16 -7 -19 -15 -5 -11 -22 -15 -64 -15 -32 0 -60 -4 -62 -9 -1 -5
-16 -10 -33 -11 -63 -4 -65 -3 -65 44 0 36 -6 49 -32 75 -29 28 -37 31 -74 25
-30 -4 -45 -2 -57 10 -8 9 -20 16 -26 16 -6 0 -11 5 -11 10 0 6 -46 10 -119
10 -69 0 -122 -4 -126 -10 -11 -19 -57 -11 -62 10 -5 18 -14 20 -88 20 -61 0
-86 4 -95 15 -10 12 -40 15 -146 15 -89 0 -134 4 -134 11 0 16 26 39 45 39 8
0 18 7 21 15 4 8 11 15 17 15 18 0 87 33 87 42 0 4 9 8 19 8 11 0 23 5 26 10
3 6 31 10 61 10 30 0 54 5 54 10 0 6 6 10 14 10 8 0 16 10 18 23 3 20 9 22 63
25 33 2 64 7 69 13 6 6 4 9 -7 9 -10 0 -20 7 -23 15 -5 12 -25 15 -89 15 -69
0 -85 3 -100 20 -10 11 -28 20 -41 20 -12 0 -29 7 -38 15 -8 8 -27 15 -43 15
-15 0 -37 7 -47 15 -11 8 -30 15 -43 15 -14 0 -23 6 -23 16 0 32 -42 53 -103
54 -42 0 -59 4 -63 15 -4 9 -19 15 -39 15 -31 0 -34 3 -37 33 l-3 32 -72 3
c-40 2 -73 7 -73 12 0 6 -12 10 -28 10 -18 0 -37 11 -59 35 -23 25 -41 35 -61
35 -16 0 -35 7 -42 15 -7 8 -21 15 -31 15 -11 0 -19 4 -19 10 0 5 -11 12 -25
16 -14 3 -25 10 -25 15 0 5 -11 9 -25 9 -20 0 -25 5 -25 25 0 23 -3 25 -50 25
-27 0 -50 5 -50 10 0 6 -15 10 -34 10 -19 0 -36 6 -38 12 -3 8 -20 11 -46 9
-31 -2 -44 2 -48 13 -3 9 -15 16 -26 16 -15 0 -19 6 -16 28 3 23 8 27 40 30
20 2 42 10 48 18 15 17 229 21 247 3 8 -8 17 -8 31 0 28 15 118 14 142 -1 15
-10 26 -10 53 0 48 17 122 15 137 -4 27 -31 49 -36 67 -14 28 33 71 34 131 5
47 -23 57 -24 95 -14 42 11 61 8 162 -27 23 -8 55 -14 73 -14 18 0 53 -11 78
-25 38 -22 94 -34 94 -21 0 20 -16 36 -37 36 -37 0 -71 39 -75 84 -3 37 -6 40
-50 54 -27 8 -48 19 -48 23 0 5 -8 9 -17 9 -22 0 -50 30 -89 94 -16 27 -36 60
-45 75 -9 15 -26 27 -42 29 -15 2 -27 8 -27 13 0 5 -6 9 -12 9 -7 0 -30 15
-50 33 -31 27 -38 40 -38 70 0 25 -6 39 -19 46 -10 6 -21 24 -24 41 -5 24 -11
30 -33 30 -42 0 -64 26 -64 77 0 23 -4 43 -9 43 -11 0 -91 80 -91 91 0 5 -7 9
-15 9 -8 0 -15 5 -15 11 0 6 -13 22 -30 35 -17 15 -32 39 -36 60 -3 19 -10 37
-15 40 -5 3 -9 12 -9 21 0 9 -29 45 -65 80 -58 56 -65 68 -65 102 0 25 -7 44
-20 56 -11 10 -20 25 -20 34 0 8 -10 25 -23 36 -13 11 -29 34 -36 52 -7 17
-19 34 -27 37 -8 3 -14 12 -14 20 0 8 -45 61 -101 117 -88 90 -100 105 -97
133 4 38 36 50 45 16 4 -15 11 -20 25 -17 11 3 22 -2 27 -11 5 -10 30 -23 55
-31 25 -7 46 -17 46 -22 0 -5 7 -9 15 -9 8 0 15 -7 15 -15 0 -8 9 -15 19 -15
11 0 21 -5 23 -10 2 -6 23 -12 47 -13 29 -1 51 -9 67 -24 14 -13 30 -23 36
-23 5 0 33 -22 60 -50 40 -41 56 -50 84 -50 32 0 114 -41 122 -61 2 -5 11 -9
20 -9 21 -1 52 -23 52 -38 0 -11 39 -24 83 -28 21 -1 48 -22 103 -79 l73 -78
26 17 c25 16 28 16 53 0 15 -9 55 -46 90 -82 59 -59 65 -63 81 -48 10 9 24 16
31 16 17 0 70 -49 70 -64 0 -6 16 -29 35 -51 20 -22 40 -46 46 -53 7 -9 21
-11 40 -7 18 4 29 3 29 -4 0 -6 6 -11 13 -11 13 0 89 -82 117 -126 8 -13 24
-24 35 -24 23 0 105 -69 105 -88 0 -7 5 -12 10 -12 6 0 10 -9 10 -20 0 -12 12
-25 33 -35 19 -10 46 -39 69 -75 23 -36 44 -60 55 -60 34 -1 83 -59 83 -99 0
-22 36 -71 53 -71 23 -1 72 -62 88 -108 11 -34 22 -48 37 -50 30 -5 29 26 -3
69 -13 19 -30 45 -37 59 -7 14 -16 27 -20 31 -4 3 -3 19 4 36 9 24 8 40 -5 81
-10 28 -17 57 -17 64 0 7 -11 25 -24 39 -33 36 -54 95 -38 111 21 21 11 100
-19 160 -12 24 -11 105 1 113 6 3 10 26 10 51 0 24 -4 44 -10 44 -6 0 -10 28
-10 64 0 49 5 69 21 90 16 20 20 35 15 59 -20 99 -22 128 -9 158 8 19 13 73
13 142 0 102 2 112 25 143 18 23 35 34 58 36 31 3 32 4 29 48 -4 66 4 90 31
90 35 0 47 19 47 78 0 30 7 69 16 88 14 29 21 34 50 34 32 0 34 2 34 33 0 18
7 42 15 53 8 11 14 42 15 74 0 46 4 58 23 70 12 8 33 15 47 15 24 0 25 2 28
82 2 72 6 84 29 107 14 14 30 26 34 26 5 0 9 16 9 35 0 19 4 35 10 35 5 0 12
17 16 37 4 20 22 65 40 100 19 35 34 74 34 88 0 14 4 25 8 25 8 0 32 76 46
143 6 25 10 27 55 27 42 0 49 -3 55 -22z m3816 -3783 c7 -8 20 -15 29 -15 9 0
22 -9 29 -20 7 -11 21 -20 32 -20 12 0 23 -7 26 -15 4 -8 12 -15 20 -15 8 0
14 -4 14 -10 0 -5 6 -10 14 -10 7 0 19 -7 26 -15 7 -8 23 -15 36 -15 19 0 24
-5 24 -24 0 -16 7 -26 23 -30 l22 -6 -24 -14 c-23 -13 -23 -16 -22 -139 2
-109 0 -127 -13 -127 -14 0 -16 -18 -16 -119 0 -87 -3 -120 -12 -123 -9 -3
-14 -42 -16 -134 -2 -71 -8 -133 -13 -139 -5 -5 -9 -26 -9 -46 0 -47 -33 -124
-59 -141 -12 -7 -21 -16 -21 -20 0 -5 48 -8 108 -8 90 0 110 -3 123 -17 8 -10
27 -27 42 -38 15 -11 27 -25 27 -32 0 -7 6 -13 13 -13 28 0 35 -39 36 -192 1
-99 -2 -159 -9 -163 -6 -4 -10 -99 -10 -273 -1 -219 -3 -270 -15 -286 -13 -17
-15 -111 -15 -643 l0 -624 -47 -44 c-27 -24 -61 -47 -78 -51 -16 -3 -48 -14
-70 -23 -61 -27 -107 -43 -137 -48 -16 -3 -28 -9 -28 -14 0 -5 -13 -9 -30 -9
-16 0 -49 -11 -74 -25 -25 -14 -56 -25 -70 -25 -14 0 -26 -4 -26 -10 0 -5 -13
-10 -29 -10 -17 0 -33 -4 -36 -10 -3 -5 -15 -10 -27 -10 -11 0 -33 -7 -49 -15
-16 -8 -43 -22 -60 -31 -28 -15 -76 -13 -89 4 -10 14 -80 45 -86 39 -4 -3 -26
5 -51 18 -24 14 -50 25 -58 25 -9 0 -36 11 -63 24 -26 13 -65 32 -87 42 -22 9
-49 27 -60 38 -11 12 -46 33 -77 46 -32 14 -58 31 -58 38 0 6 -7 12 -15 12 -8
0 -15 4 -15 9 0 5 -13 13 -28 19 -34 12 -62 -5 -62 -37 0 -11 -4 -21 -10 -21
-5 0 -10 -16 -10 -35 0 -19 -5 -35 -10 -35 -6 0 -15 -12 -21 -27 -15 -41 -29
-11 -29 63 0 43 5 65 15 74 16 13 21 90 7 90 -8 0 -162 147 -162 155 0 6 -61
65 -67 65 -9 0 -32 34 -33 47 0 7 -16 27 -35 46 -19 19 -35 41 -35 50 0 8 -11
24 -25 35 -14 11 -25 29 -25 40 0 11 -7 22 -15 26 -9 3 -15 18 -15 35 0 16 -4
33 -10 36 -5 3 -10 19 -10 35 0 16 -4 32 -10 35 -6 4 -10 60 -10 136 0 84 4
128 10 124 6 -3 10 -37 10 -74 0 -42 6 -80 15 -97 8 -16 15 -37 15 -46 0 -10
5 -18 10 -18 6 0 10 -16 10 -35 0 -19 4 -35 10 -35 5 0 12 -11 16 -24 3 -14
14 -32 25 -42 10 -9 19 -25 19 -34 0 -9 14 -29 30 -43 17 -15 30 -34 30 -42 0
-8 16 -29 36 -47 20 -18 43 -41 52 -51 44 -50 136 -137 143 -137 5 0 9 -4 9
-10 0 -5 14 -10 30 -10 30 0 30 0 30 59 0 40 5 63 15 71 8 7 15 29 15 49 0 21
7 46 15 57 16 21 19 71 6 92 -6 10 -10 10 -21 -3 -7 -8 -18 -15 -24 -15 -6 0
-20 -14 -31 -30 -25 -38 -50 -46 -80 -26 -13 9 -31 16 -40 16 -8 0 -15 5 -15
10 0 6 -11 10 -25 10 -25 0 -25 1 -25 79 0 58 -4 82 -15 91 -12 10 -15 47 -15
216 0 129 -4 204 -10 204 -6 0 -10 90 -10 249 0 206 -3 251 -15 261 -15 12
-16 45 -30 748 -5 218 -8 264 -20 269 -23 8 -22 393 0 393 8 0 15 4 15 10 0
17 34 50 52 50 10 0 18 4 18 9 0 5 42 9 93 10 89 2 145 -12 162 -40 4 -5 19
-9 36 -9 26 0 29 -3 29 -31 0 -27 3 -30 23 -23 12 3 24 11 25 15 2 5 12 9 22
9 10 0 20 7 24 15 3 8 15 15 27 15 12 0 30 11 41 25 11 14 23 23 28 20 5 -3
15 2 23 10 9 8 25 15 36 15 12 0 21 6 21 15 0 9 9 15 23 15 12 0 28 9 35 20 7
11 21 20 32 20 12 0 23 7 26 15 4 8 15 15 26 15 10 0 29 11 42 25 13 14 30 25
39 25 9 0 19 5 22 10 3 6 14 10 23 10 10 0 26 11 36 25 10 14 27 25 38 25 10
0 21 7 24 15 4 8 14 15 24 15 11 0 22 5 25 10 3 6 17 10 31 10 16 0 28 8 36
25 6 14 19 25 29 25 28 0 49 11 49 25 0 8 10 17 23 20 43 13 97 39 97 47 0 15
87 9 100 -7z m-8482 -245 c32 -30 41 -50 22 -50 -5 0 -10 -9 -10 -20 0 -13 7
-20 20 -20 20 0 28 -24 12 -34 -5 -3 -9 -23 -10 -45 -2 -34 1 -40 23 -45 26
-7 32 -20 15 -31 -5 -3 -10 -19 -10 -34 0 -20 6 -30 20 -34 16 -4 20 -11 16
-29 -17 -82 -16 -90 4 -95 22 -6 29 -56 10 -68 -14 -9 7 -35 26 -35 17 0 20
-75 4 -85 -16 -10 -12 -19 13 -30 26 -12 35 -57 17 -91 -10 -18 -9 -25 9 -43
23 -23 27 -51 9 -69 -9 -9 -9 -12 0 -12 7 0 12 -7 12 -15 0 -8 5 -15 11 -15 8
0 10 -17 7 -50 -4 -39 -1 -53 13 -66 12 -11 17 -29 16 -54 -1 -24 5 -44 17
-55 13 -14 17 -28 12 -53 -3 -21 1 -49 10 -70 8 -20 12 -48 9 -62 -3 -14 2
-38 10 -54 8 -15 15 -45 15 -66 0 -21 7 -43 15 -50 10 -8 15 -30 15 -65 0 -31
5 -57 13 -63 7 -6 14 -30 16 -53 1 -23 6 -50 11 -60 6 -10 10 -28 11 -41 1
-20 3 -18 15 11 19 44 40 136 63 286 5 33 14 74 19 90 23 70 35 125 62 285 19
115 27 151 38 162 7 7 12 35 12 64 0 34 5 56 15 64 9 8 15 30 15 56 0 24 5 44
10 44 6 0 10 24 10 53 0 29 5 58 12 65 7 7 11 30 9 52 -2 29 2 42 13 46 12 5
16 21 16 64 0 42 4 59 15 64 10 4 15 20 15 51 0 25 4 45 9 45 6 0 7 24 4 55
-5 45 -3 56 11 61 11 4 16 18 16 45 0 46 28 96 65 115 33 17 335 21 335 4 0
-5 6 -10 13 -10 30 -1 57 -38 57 -79 0 -28 5 -44 15 -47 11 -5 15 -22 15 -65
0 -33 4 -59 10 -59 6 0 10 -20 10 -44 0 -25 5 -48 10 -51 6 -3 10 -31 10 -61
0 -39 4 -56 15 -60 10 -4 15 -20 15 -49 0 -26 6 -47 15 -55 10 -8 15 -31 15
-66 0 -29 5 -56 10 -59 6 -3 10 -26 10 -51 0 -24 5 -44 10 -44 6 0 10 -27 10
-60 0 -47 3 -60 15 -60 12 0 15 -13 15 -59 0 -33 5 -63 10 -66 6 -3 10 -31 10
-61 0 -30 5 -54 10 -54 6 0 10 -20 10 -45 0 -31 5 -47 15 -51 11 -5 15 -22 15
-64 0 -42 4 -59 15 -64 10 -4 15 -20 15 -51 0 -25 5 -45 10 -45 6 0 10 -27 10
-60 0 -33 4 -60 10 -60 6 0 10 -21 10 -46 0 -27 6 -51 15 -60 10 -10 15 -35
15 -74 0 -32 5 -62 10 -65 6 -3 10 -28 10 -54 0 -26 7 -56 15 -67 8 -10 15
-36 15 -56 0 -20 5 -40 10 -43 6 -3 10 -33 10 -65 0 -32 5 -60 10 -62 6 -2 12
-28 13 -57 2 -30 9 -57 15 -59 7 -2 12 -23 12 -47 0 -26 6 -47 15 -55 10 -8
15 -31 15 -66 0 -29 5 -56 10 -59 6 -3 10 -24 10 -45 0 -21 4 -41 9 -45 5 -3
13 -31 17 -63 3 -31 10 -61 14 -67 8 -10 15 -57 26 -165 3 -30 10 -60 16 -67
5 -6 12 -37 15 -68 3 -30 10 -58 14 -61 5 -3 9 -30 9 -60 0 -36 5 -61 15 -70
15 -16 21 -88 9 -118 -10 -26 -24 -18 -24 14 0 18 -6 33 -15 36 -9 4 -15 19
-15 39 0 19 -4 37 -10 40 -5 3 -10 26 -10 51 0 24 -4 44 -10 44 -5 0 -10 9
-10 20 0 11 -7 23 -15 26 -9 4 -15 19 -15 39 0 18 -5 35 -10 37 -6 2 -16 36
-24 77 -8 40 -19 78 -25 84 -6 6 -11 26 -11 44 0 23 -5 33 -15 33 -11 0 -15
11 -15 37 0 20 -7 44 -15 53 -9 10 -20 44 -25 76 -5 32 -14 60 -20 62 -5 2
-10 17 -10 34 0 16 -7 36 -15 44 -8 9 -15 26 -15 39 0 13 -4 27 -10 30 -5 3
-10 15 -10 26 0 10 -4 19 -10 19 -5 0 -10 15 -10 33 0 17 -7 41 -15 51 -8 11
-15 30 -15 43 0 13 -4 23 -10 23 -5 0 -10 12 -10 28 0 15 -7 36 -15 46 -8 11
-15 30 -15 42 0 13 -4 26 -10 29 -5 3 -10 20 -10 36 0 17 -7 37 -15 45 -8 9
-15 26 -15 39 0 13 -4 27 -10 30 -5 3 -10 16 -10 27 0 26 -17 83 -36 121 -8
16 -14 39 -14 52 0 13 -4 27 -10 30 -5 3 -10 19 -10 34 0 15 -7 36 -15 47 -8
10 -15 31 -15 46 0 15 -4 30 -10 33 -5 3 -10 17 -10 31 0 13 -11 41 -24 62
-13 21 -27 52 -30 70 -4 17 -12 34 -17 37 -5 4 -9 19 -9 35 0 16 -4 32 -10 35
-5 3 -10 19 -10 34 0 15 -7 36 -15 47 -8 10 -15 31 -15 47 0 15 -4 27 -10 27
-5 0 -10 12 -10 26 0 14 -6 38 -14 52 -19 37 -36 94 -36 120 0 11 -4 24 -10
27 -5 3 -10 17 -10 29 0 13 -7 29 -15 36 -8 7 -15 20 -15 29 -1 17 -23 51 -34
51 -3 0 -6 -15 -6 -34 0 -21 -6 -36 -15 -40 -9 -3 -15 -18 -15 -36 0 -16 -4
-30 -10 -30 -5 0 -10 -15 -10 -34 0 -18 -7 -39 -15 -46 -8 -7 -15 -22 -15 -33
0 -27 -22 -87 -32 -87 -4 0 -8 -13 -8 -29 0 -16 -7 -34 -15 -41 -8 -7 -15 -27
-15 -46 0 -18 -4 -36 -10 -39 -5 -3 -10 -16 -10 -28 0 -12 -7 -31 -15 -41 -8
-11 -15 -30 -15 -42 0 -13 -4 -26 -10 -29 -5 -3 -10 -19 -10 -34 0 -15 -7 -36
-15 -47 -8 -10 -15 -34 -15 -51 0 -18 -4 -33 -10 -33 -5 0 -10 -16 -10 -35 0
-19 -4 -35 -10 -35 -5 0 -10 -15 -10 -34 0 -18 -7 -39 -15 -46 -8 -7 -15 -23
-15 -36 0 -13 -9 -38 -20 -56 -11 -18 -20 -48 -20 -67 0 -34 -33 -115 -51
-127 -5 -3 -9 -14 -9 -25 0 -11 -6 -30 -14 -42 -8 -12 -17 -44 -21 -72 -4 -27
-13 -58 -21 -69 -18 -26 -20 -226 -2 -244 6 -6 17 -60 23 -119 7 -60 17 -109
24 -111 6 -2 11 -26 11 -57 0 -34 5 -59 15 -69 8 -8 15 -31 15 -51 0 -19 6
-46 14 -58 8 -13 17 -65 21 -122 5 -57 13 -108 21 -120 8 -11 14 -33 14 -50 0
-17 7 -40 15 -51 16 -21 20 -110 5 -119 -17 -11 -50 15 -50 40 0 13 -4 27 -10
30 -5 3 -10 18 -10 33 -1 15 -7 38 -15 52 -8 14 -14 35 -15 48 0 12 -4 22 -10
22 -5 0 -12 16 -16 35 -3 19 -10 38 -15 41 -5 3 -9 18 -9 34 0 16 -4 32 -10
35 -5 3 -10 14 -10 24 0 10 -11 40 -25 67 -14 27 -36 87 -49 134 -14 47 -32
102 -41 124 -15 36 -17 37 -30 20 -8 -11 -15 -26 -15 -35 0 -9 -7 -22 -15 -29
-8 -7 -15 -23 -15 -36 0 -12 -7 -29 -15 -38 -8 -8 -15 -28 -15 -45 0 -17 -4
-31 -9 -31 -5 0 -11 -12 -14 -27 -19 -92 -26 -118 -36 -121 -6 -2 -11 -19 -11
-38 0 -19 -4 -34 -10 -34 -5 0 -10 -10 -10 -23 0 -13 -7 -32 -15 -43 -8 -10
-15 -32 -15 -49 0 -29 -18 -88 -32 -111 -4 -6 -10 -29 -14 -51 -3 -22 -14 -44
-25 -51 -27 -17 -54 25 -45 70 4 18 11 56 15 83 11 66 31 142 47 182 8 17 14
40 14 51 0 12 5 33 11 49 6 15 17 69 24 118 8 50 28 151 46 225 17 74 35 166
40 204 6 39 15 76 21 83 8 10 8 20 1 36 -6 12 -44 123 -84 247 -39 124 -75
230 -79 235 -4 6 -15 35 -25 65 -9 30 -25 74 -35 96 -10 23 -22 59 -26 80 -4
22 -18 58 -31 81 -13 24 -21 43 -19 43 6 0 -23 101 -33 115 -4 6 -20 48 -36
95 -15 47 -32 89 -36 95 -5 5 -9 21 -9 36 0 15 -7 32 -15 39 -8 7 -12 16 -9
21 3 5 -2 23 -10 41 -8 18 -20 52 -27 76 -7 23 -18 47 -26 53 -7 6 -13 29 -13
51 0 48 -23 48 -28 0 -2 -18 -7 -32 -13 -32 -5 0 -9 -13 -9 -29 0 -17 -4 -33
-10 -36 -5 -3 -10 -26 -10 -49 0 -27 -6 -48 -15 -56 -8 -7 -15 -23 -15 -35 0
-12 -7 -28 -15 -35 -8 -7 -15 -25 -15 -41 0 -15 -4 -31 -10 -34 -5 -3 -10 -17
-10 -31 0 -13 -4 -32 -9 -42 -5 -9 -17 -35 -26 -57 -10 -22 -21 -47 -25 -55
-4 -9 -11 -36 -14 -60 -4 -25 -11 -54 -15 -65 -5 -11 -14 -40 -21 -65 -6 -25
-15 -52 -20 -60 -4 -9 -11 -30 -14 -48 -4 -17 -12 -34 -17 -37 -5 -4 -9 -17
-9 -30 0 -13 -4 -27 -10 -30 -5 -3 -10 -16 -10 -27 0 -19 -17 -61 -66 -162 -8
-16 -14 -39 -14 -52 0 -13 -4 -26 -10 -29 -5 -3 -10 -17 -10 -30 0 -13 -4 -26
-9 -29 -5 -3 -12 -23 -16 -43 -4 -21 -10 -42 -13 -48 -13 -19 -33 -80 -43
-130 -5 -27 -13 -62 -16 -77 -3 -16 -9 -28 -14 -28 -4 0 -11 -16 -15 -35 -3
-19 -10 -38 -15 -41 -5 -3 -9 -14 -9 -26 0 -11 -6 -32 -14 -46 -8 -15 -19 -52
-26 -82 -13 -54 -23 -80 -46 -110 -6 -8 -14 -32 -17 -52 -7 -47 5 -49 61 -8
78 57 162 30 162 -52 0 -21 -4 -38 -10 -38 -5 0 -10 -10 -10 -22 -1 -13 -7
-34 -15 -48 -8 -14 -14 -39 -15 -57 0 -30 -5 -47 -36 -120 -8 -17 -14 -42 -14
-56 0 -14 -4 -29 -10 -32 -5 -3 -10 -19 -10 -34 0 -15 -7 -36 -15 -47 -8 -10
-15 -31 -15 -46 0 -22 -5 -28 -21 -28 -43 0 -64 64 -35 105 7 11 17 43 21 70
4 28 13 75 21 105 15 60 19 140 6 140 -5 0 -22 -11 -38 -25 -64 -57 -145 -106
-164 -100 -26 8 -90 76 -97 103 -3 14 1 30 10 40 8 9 18 37 21 62 12 100 19
130 27 136 5 3 9 22 9 42 0 20 7 46 15 56 8 11 15 37 15 57 0 21 5 41 10 44 6
3 10 28 10 55 0 27 5 52 10 55 6 3 10 30 10 59 0 35 5 58 15 66 8 7 15 27 15
45 0 18 7 46 15 61 8 16 15 43 15 61 0 17 5 35 10 38 6 3 10 28 10 55 0 27 5
52 10 55 6 3 10 16 10 27 0 18 17 86 37 148 3 8 7 32 9 53 2 21 9 47 14 57 6
10 10 34 10 54 0 19 6 41 13 48 8 7 14 31 15 52 1 22 6 42 10 45 5 3 11 32 14
64 3 33 9 62 15 65 11 7 20 56 29 155 4 37 11 60 20 64 9 3 14 21 14 54 0 27
5 49 10 49 6 0 10 22 10 48 0 27 6 57 15 68 8 10 15 36 15 56 0 20 5 40 10 43
6 3 10 24 10 46 0 23 7 47 16 56 11 11 15 31 13 66 -2 33 1 52 9 55 7 2 12 23
12 53 0 39 3 49 16 49 14 0 16 8 11 46 -3 33 -1 47 9 51 10 3 14 22 14 58 0
40 4 54 16 59 13 5 16 17 12 62 -4 41 -1 57 9 61 8 3 13 22 13 49 0 24 4 44 8
44 4 0 16 14 26 31 10 17 20 28 23 25 3 -3 15 1 27 9 16 12 57 15 191 15 l170
-1 33 -29z m4318 -2824 c20 -20 19 -92 -2 -100 -26 -10 -33 -7 -49 24 -18 35
-19 56 -2 75 16 18 35 19 53 1z m-289 -338 c20 -10 156 -14 505 -18 462 -5
478 -6 492 -25 9 -11 16 -33 16 -48 0 -15 7 -30 15 -33 12 -5 15 -27 15 -114
0 -60 4 -112 10 -115 12 -7 -10 -45 -26 -45 -7 0 -14 -7 -18 -15 -3 -8 -12
-15 -20 -15 -7 0 -26 -6 -41 -14 -15 -8 -34 -12 -41 -9 -24 9 -16 -34 11 -55
14 -11 25 -24 25 -30 0 -5 7 -12 15 -16 8 -3 15 -15 15 -26 0 -11 5 -20 10
-20 6 0 10 -9 10 -20 0 -11 5 -20 10 -20 6 0 10 -11 10 -24 0 -13 7 -26 15
-30 8 -3 15 -17 15 -31 0 -15 6 -33 14 -41 8 -7 17 -31 21 -53 3 -22 13 -42
21 -45 8 -3 14 -19 14 -35 0 -16 6 -31 15 -35 8 -3 15 -17 15 -31 0 -14 5 -25
10 -25 6 0 10 -16 10 -35 0 -19 5 -35 10 -35 6 0 10 -15 10 -34 0 -21 6 -36
15 -40 10 -4 15 -20 15 -51 0 -25 5 -45 10 -45 6 0 10 -15 10 -34 0 -21 6 -36
15 -40 10 -4 15 -20 15 -51 0 -25 5 -45 10 -45 6 0 10 -26 10 -59 0 -43 4 -60
15 -65 11 -4 15 -22 15 -70 0 -36 5 -68 10 -71 6 -4 10 -70 10 -165 0 -131 3
-159 15 -164 10 -4 15 -20 15 -50 0 -30 -5 -46 -15 -50 -12 -4 -15 -25 -15
-95 0 -49 -4 -93 -10 -96 -5 -3 -10 -30 -10 -59 0 -35 -5 -58 -15 -66 -8 -7
-15 -26 -15 -43 0 -34 -15 -88 -36 -129 -8 -14 -14 -35 -14 -46 0 -12 -4 -24
-10 -27 -5 -3 -10 -15 -10 -26 0 -10 -4 -19 -8 -19 -5 0 -16 -19 -26 -42 -10
-24 -25 -59 -33 -78 -20 -44 -101 -162 -119 -173 -8 -4 -14 -12 -14 -18 0 -27
-173 -208 -225 -235 -14 -7 -40 -29 -57 -49 -18 -19 -38 -35 -45 -35 -7 0 -13
-4 -13 -10 0 -5 -7 -10 -16 -10 -8 0 -30 -11 -48 -25 -39 -30 -126 -75 -143
-75 -7 0 -13 -4 -13 -8 0 -5 -39 -28 -87 -51 -49 -24 -95 -46 -103 -51 -9 -4
-30 -11 -48 -15 -18 -3 -32 -11 -32 -16 0 -5 -16 -9 -35 -9 -45 0 -94 43 -104
90 -5 28 -12 36 -33 38 -14 2 -65 23 -114 48 -48 24 -92 44 -97 44 -6 0 -43
16 -83 35 -40 19 -77 35 -82 35 -5 0 -26 15 -46 34 -34 33 -36 38 -36 100 0
36 3 66 8 66 9 0 32 116 32 164 0 19 7 42 16 51 25 25 4 37 -31 19 -24 -13
-37 -13 -67 -4 -21 6 -38 15 -38 20 0 5 -10 12 -22 16 -32 10 -68 54 -68 84
-1 14 0 118 0 232 1 180 -1 208 -15 216 -15 8 -17 41 -15 296 1 268 0 288 -17
292 -17 5 -18 22 -15 265 2 184 0 259 -8 259 -8 0 -11 82 -9 284 2 256 0 286
-15 301 -21 21 -13 68 15 96 10 10 19 23 19 29 0 13 54 40 80 40 26 0 25 15
-2 41 -107 98 -118 113 -120 159 -3 74 2 103 20 123 69 75 88 88 161 112 71
22 91 24 293 25 152 0 225 -4 245 -12z"/>
<path d="M11404 9405 c-10 -8 -25 -15 -33 -15 -8 0 -28 -15 -46 -32 -17 -18
-51 -43 -76 -55 -24 -12 -66 -38 -94 -58 -27 -19 -62 -40 -77 -47 -16 -7 -28
-16 -28 -20 0 -4 -7 -8 -17 -8 -9 0 -40 -18 -69 -40 -29 -22 -58 -40 -64 -40
-5 0 -10 -4 -10 -10 0 -5 -7 -10 -15 -10 -8 0 -15 -4 -15 -10 0 -5 -6 -10 -14
-10 -7 0 -26 -10 -42 -22 -34 -28 -83 -58 -149 -94 -69 -36 -95 -62 -95 -95 0
-33 16 -41 50 -24 47 23 95 38 138 42 23 3 42 9 42 14 0 5 23 9 50 9 28 0 50
5 50 10 0 6 20 10 44 10 30 0 46 5 50 15 3 8 18 15 33 15 15 0 37 7 47 15 11
8 37 15 58 15 21 0 38 5 38 10 0 6 20 10 45 10 25 0 45 5 45 10 0 6 15 10 33
10 17 0 41 7 51 15 11 8 29 15 41 15 41 0 45 16 45 191 0 142 2 168 16 173 8
3 12 10 9 16 -8 14 -18 13 -41 -5z"/>
<path d="M11719 8480 c-14 -4 -99 -8 -188 -9 -114 -1 -174 -6 -204 -17 -32
-11 -81 -14 -202 -13 -106 1 -168 -2 -182 -9 -14 -8 -86 -12 -205 -12 l-183 0
-12 -27 c-35 -80 -43 -148 -43 -365 0 -134 -4 -219 -10 -223 -6 -4 -10 -90
-10 -225 0 -135 -4 -221 -10 -225 -16 -10 -12 -130 4 -144 15 -13 79 9 93 32
9 16 69 47 90 47 7 0 13 -4 13 -10 0 -5 9 -10 19 -10 23 0 61 -60 61 -95 0
-22 -16 -68 -41 -117 -5 -10 -9 -23 -9 -30 0 -7 -6 -24 -13 -38 -7 -14 -19
-51 -27 -82 -7 -32 -17 -58 -22 -58 -4 0 -8 -10 -8 -21 0 -12 -9 -37 -21 -56
-22 -35 -54 -166 -46 -187 3 -7 70 -45 148 -85 79 -40 158 -81 176 -91 17 -11
51 -24 75 -30 24 -7 50 -18 58 -25 8 -7 35 -19 60 -26 25 -7 50 -16 55 -20 6
-5 30 -11 54 -15 37 -6 53 -2 105 23 80 40 196 90 271 118 33 12 74 27 90 34
52 21 149 72 168 88 19 18 24 87 7 98 -6 4 -10 91 -10 229 0 180 -3 226 -15
242 -12 16 -14 116 -15 692 l0 672 -22 -1 c-13 0 -35 -4 -49 -9z"/>
<path d="M6784 6098 c-3 -4 1 -8 8 -8 7 0 25 -15 40 -32 l28 -33 0 -187 c0
-114 -4 -189 -10 -193 -6 -4 -10 -110 -10 -286 l0 -279 25 0 c14 0 25 -4 25
-10 0 -5 10 -10 23 -11 14 0 44 -26 87 -74 36 -40 75 -79 88 -86 13 -7 22 -22
22 -36 0 -14 6 -23 15 -23 9 0 15 -9 15 -24 0 -14 5 -28 10 -31 6 -3 10 -15
10 -26 0 -10 5 -19 10 -19 6 0 10 -16 10 -35 0 -24 5 -35 15 -35 10 0 15 -10
15 -34 0 -19 5 -38 10 -41 6 -3 10 -19 10 -35 0 -15 5 -30 12 -32 7 -3 12 -24
12 -49 1 -25 7 -49 15 -55 8 -6 15 -32 16 -62 1 -28 8 -59 16 -68 10 -13 14
-53 15 -158 1 -78 7 -160 13 -183 8 -29 11 -163 11 -405 0 -200 -1 -368 0
-374 1 -30 62 -18 130 26 8 5 40 21 70 34 31 14 67 35 81 48 24 21 39 31 93
62 20 11 23 14 91 72 22 19 45 34 50 34 6 0 30 23 55 51 25 27 60 67 79 87 42
47 91 117 91 132 0 6 7 13 15 16 8 4 15 12 15 20 0 8 5 14 10 14 6 0 10 6 10
14 0 7 6 19 14 25 8 7 18 27 21 44 4 18 14 42 22 55 16 26 63 165 63 187 0 8
4 15 9 15 9 0 12 19 29 208 5 57 15 109 21 115 15 15 14 103 -1 130 -7 12 -16
72 -20 132 -9 138 -21 214 -36 242 -7 12 -12 37 -12 57 0 19 -4 38 -10 41 -5
3 -10 27 -10 52 0 42 -27 107 -53 124 -4 3 -5 18 -1 33 4 17 1 35 -10 51 -9
13 -16 35 -16 49 0 14 -4 28 -10 31 -5 3 -10 15 -10 26 0 11 -7 22 -15 25 -8
4 -15 17 -15 30 0 13 -4 32 -9 42 -5 9 -17 35 -27 57 -11 22 -22 42 -26 43 -5
2 -8 13 -8 25 0 26 -50 130 -77 161 -11 12 -22 30 -26 39 -6 16 -37 17 -372
17 -237 0 -365 -4 -365 -10 0 -6 -42 -10 -106 -10 -104 0 -107 1 -130 28 -21
24 -24 37 -24 113 0 66 -4 90 -15 99 -9 7 -14 19 -11 27 5 13 0 14 -77 17 -16
1 -31 -2 -33 -6z"/>
<path d="M6817 5023 c-4 -3 -7 -100 -7 -215 0 -132 -4 -208 -10 -208 -6 0 -10
-101 -10 -284 0 -236 -3 -287 -15 -299 -8 -8 -11 -17 -8 -21 15 -14 46 -4 73
24 16 16 38 30 48 30 21 0 122 -97 122 -116 0 -7 -7 -25 -15 -40 -8 -16 -15
-39 -15 -51 0 -12 -4 -32 -9 -45 -5 -13 -14 -43 -21 -68 -7 -25 -16 -54 -21
-65 -30 -73 -39 -101 -39 -127 0 -16 -11 -49 -25 -74 -44 -79 -32 -116 53
-149 23 -10 42 -21 42 -26 0 -5 7 -9 15 -9 8 0 15 -4 15 -8 0 -5 10 -14 23
-20 12 -6 40 -23 62 -36 59 -37 119 -65 127 -60 5 3 8 120 8 260 0 163 4 254
10 254 15 0 13 483 -2 498 -7 7 -11 39 -10 83 2 55 -2 76 -14 91 -12 12 -17
33 -15 69 1 33 -4 55 -14 65 -8 9 -15 32 -15 52 0 21 -7 47 -15 59 -8 12 -12
28 -9 37 3 9 1 16 -5 16 -6 0 -11 7 -11 15 0 8 -5 15 -11 15 -7 0 -9 9 -6 21
3 13 -2 28 -14 40 -10 10 -19 25 -19 33 0 8 -4 18 -10 21 -5 3 -10 17 -10 31
0 15 -6 24 -15 24 -8 0 -15 9 -15 19 0 11 -34 53 -76 95 -69 70 -99 87 -117
69z"/>
</g>
</svg>
